<?xml version="1.0" encoding="UTF-8"?>
<!DOCTYPE svg PUBLIC "-//W3C//DTD SVG 1.1//EN" "http://www.w3.org/Graphics/SVG/1.1/DTD/svg11.dtd">
<svg version="1.1" xmlns="http://www.w3.org/2000/svg" xmlns:xlink="http://www.w3.org/1999/xlink" x="0" y="0" width="288" height="288" viewBox="0, 0, 288, 288">
  <g id="Layer_3">
    <g>
      <path d="M63.414,64.375 L219.77,64.375 L219.77,224.591 L63.414,224.591 L63.414,64.375 z" fill="#000000"/>
      <path d="M63.414,64.375 L219.77,64.375 L219.77,224.591 L63.414,224.591 L63.414,64.375 z" fill-opacity="0" stroke="#000000" stroke-width="8"/>
    </g>
  </g>
  <g id="Layer_2">
    <g id="Layer_1">
      <path d="M280.03,135.412 L265.819,110.752 L265.819,83.486 C265.819,77.389 262.623,71.587 257.116,68.685 L233.328,55.052 L219.684,30.676 C216.488,25.451 210.98,21.972 204.883,21.972 L176.744,21.972 L152.662,8.044 C147.438,4.848 140.763,4.848 135.55,8.044 L111.468,21.972 L83.907,21.972 C77.809,21.972 72.007,25.168 69.106,30.676 L55.473,54.463 L31.108,68.674 C25.883,71.87 22.404,77.378 22.404,83.475 L22.404,111.908 L8.771,135.413 C7.32,138.019 6.448,140.92 6.448,144.116 C6.448,147.017 7.32,150.213 8.771,152.82 L22.404,176.324 L22.404,204.746 C22.404,210.843 25.6,216.646 31.108,219.547 L55.473,233.758 L69.106,257.545 C72.302,262.77 77.809,266.249 83.907,266.249 L111.468,266.249 L135.55,280.177 C138.156,281.627 141.057,282.5 144.253,282.5 C147.154,282.5 150.35,281.627 152.957,280.177 L177.039,266.249 L205.178,266.249 C211.275,266.249 217.077,263.053 219.979,257.545 L233.907,233.18 L257.694,219.547 C262.918,216.351 266.397,210.843 266.397,204.746 L266.397,177.48 L280.608,152.82 C283.226,147.596 283.226,140.92 280.03,135.413 z M203.149,141.498 L175.883,192.269 C175.588,192.563 165.151,213.45 143.97,213.45 C141.941,213.45 135.561,213.155 133.521,212.872 C109.156,208.225 102.763,185.888 102.763,185.605 L84.778,129.61 C84.483,128.737 83.033,125.553 83.905,122.357 C84.483,120.611 85.934,119.161 87.962,118.005 C90.285,116.849 92.609,116.849 94.342,117.71 C97.244,118.866 98.116,121.767 98.116,121.767 C102.173,133.372 107.398,143.231 109.143,143.526 C109.438,143.526 110.016,143.231 110.016,142.653 C110.888,140.908 110.016,138.007 109.721,136.851 L101.312,101.46 C101.312,101.165 97.538,89.855 104.791,87.249 C106.82,86.376 108.848,86.671 110.594,87.543 C113.495,88.994 114.368,92.19 114.651,92.19 L125.678,129.609 C126.255,131.354 127.128,135.411 128.873,135.117 C129.451,135.117 129.746,134.822 129.746,134.539 C130.619,133.383 130.041,130.482 130.041,130.482 L126.562,86.668 C125.984,82.894 126.562,75.936 133.52,74.486 C136.126,73.908 138.449,74.191 140.478,75.642 C143.379,77.67 143.957,81.149 143.957,81.149 C143.957,81.149 147.436,120.019 148.309,127.568 C148.603,131.92 149.181,133.37 149.759,133.37 C152.083,133.37 152.661,129.018 152.661,129.018 L157.307,93.627 C157.307,92.754 157.602,88.119 160.503,85.501 C161.954,84.051 163.699,83.756 166.011,83.756 C168.617,84.051 170.362,84.912 171.813,86.657 C173.558,88.981 172.969,91.882 172.969,92.46 L168.334,142.946 C168.334,144.975 168.628,150.777 171.53,151.355 C175.303,151.933 177.332,149.032 177.332,148.748 L189.231,131.636 C191.26,129.313 196.19,125.539 201.131,129.313 C205.755,132.509 204.599,138.889 203.148,141.495 z" fill="#000000"/>
      <path d="M280.03,135.412 L265.819,110.752 L265.819,83.486 C265.819,77.389 262.623,71.587 257.116,68.685 L233.328,55.052 L219.684,30.676 C216.488,25.451 210.98,21.972 204.883,21.972 L176.744,21.972 L152.662,8.044 C147.438,4.848 140.763,4.848 135.55,8.044 L111.468,21.972 L83.907,21.972 C77.809,21.972 72.007,25.168 69.106,30.676 L55.473,54.463 L31.108,68.674 C25.883,71.87 22.404,77.378 22.404,83.475 L22.404,111.908 L8.771,135.413 C7.32,138.019 6.448,140.92 6.448,144.116 C6.448,147.017 7.32,150.213 8.771,152.82 L22.404,176.324 L22.404,204.746 C22.404,210.843 25.6,216.646 31.108,219.547 L55.473,233.758 L69.106,257.545 C72.302,262.77 77.809,266.249 83.907,266.249 L111.468,266.249 L135.55,280.177 C138.156,281.627 141.057,282.5 144.253,282.5 C147.154,282.5 150.35,281.627 152.957,280.177 L177.039,266.249 L205.178,266.249 C211.275,266.249 217.077,263.053 219.979,257.545 L233.907,233.18 L257.694,219.547 C262.918,216.351 266.397,210.843 266.397,204.746 L266.397,177.48 L280.608,152.82 C283.226,147.596 283.226,140.92 280.03,135.413 z M203.149,141.498 L175.883,192.269 C175.588,192.563 165.151,213.45 143.97,213.45 C141.941,213.45 135.561,213.155 133.521,212.872 C109.156,208.225 102.763,185.888 102.763,185.605 L84.778,129.61 C84.483,128.737 83.033,125.553 83.905,122.357 C84.483,120.611 85.934,119.161 87.962,118.005 C90.285,116.849 92.609,116.849 94.342,117.71 C97.244,118.866 98.116,121.767 98.116,121.767 C102.173,133.372 107.398,143.231 109.143,143.526 C109.438,143.526 110.016,143.231 110.016,142.653 C110.888,140.908 110.016,138.007 109.721,136.851 L101.312,101.46 C101.312,101.165 97.538,89.855 104.791,87.249 C106.82,86.376 108.848,86.671 110.594,87.543 C113.495,88.994 114.368,92.19 114.651,92.19 L125.678,129.609 C126.255,131.354 127.128,135.411 128.873,135.117 C129.451,135.117 129.746,134.822 129.746,134.539 C130.619,133.383 130.041,130.482 130.041,130.482 L126.562,86.668 C125.984,82.894 126.562,75.936 133.52,74.486 C136.126,73.908 138.449,74.191 140.478,75.642 C143.379,77.67 143.957,81.149 143.957,81.149 C143.957,81.149 147.436,120.019 148.309,127.568 C148.603,131.92 149.181,133.37 149.759,133.37 C152.083,133.37 152.661,129.018 152.661,129.018 L157.307,93.627 C157.307,92.754 157.602,88.119 160.503,85.501 C161.954,84.051 163.699,83.756 166.011,83.756 C168.617,84.051 170.362,84.912 171.813,86.657 C173.558,88.981 172.969,91.882 172.969,92.46 L168.334,142.946 C168.334,144.975 168.628,150.777 171.53,151.355 C175.303,151.933 177.332,149.032 177.332,148.748 L189.231,131.636 C191.26,129.313 196.19,125.539 201.131,129.313 C205.755,132.509 204.599,138.889 203.148,141.495 z" fill-opacity="0" stroke="#000000" stroke-width="8"/>
    </g>
  </g>
  <g id="Layer_1">
    <path d="M278.865,134.765 L264.654,110.105 L264.654,82.839 C264.654,76.742 261.458,70.939 255.95,68.038 L232.163,54.405 L218.518,30.028 C215.322,24.804 209.815,21.325 203.718,21.325 L175.579,21.325 L151.497,7.397 C146.272,4.201 139.597,4.201 134.384,7.397 L110.302,21.325 L82.741,21.325 C76.644,21.325 70.842,24.521 67.94,30.028 L54.307,53.816 L29.942,68.027 C24.718,71.223 21.239,76.73 21.239,82.827 L21.239,111.261 L7.605,134.765 C6.155,137.372 5.282,140.273 5.282,143.469 C5.282,146.37 6.155,149.566 7.605,152.172 L21.239,175.677 L21.239,204.099 C21.239,210.196 24.434,215.999 29.942,218.9 L54.307,233.111 L67.94,256.898 C71.136,262.123 76.644,265.602 82.741,265.602 L110.302,265.602 L134.384,279.53 C136.991,280.98 139.892,281.853 143.088,281.853 C145.989,281.853 149.185,280.98 151.791,279.53 L175.873,265.602 L204.012,265.602 C210.11,265.602 215.912,262.406 218.813,256.898 L232.741,232.533 L256.528,218.9 C261.753,215.704 265.232,210.196 265.232,204.099 L265.232,176.833 L279.443,152.173 C282.061,146.948 282.061,140.273 278.865,134.766 z M201.984,140.851 L174.717,191.621 C174.423,191.916 163.985,212.802 142.804,212.802 C140.776,212.802 134.396,212.508 132.356,212.224 C107.99,207.578 101.597,185.241 101.597,184.958 L83.612,128.962 C83.318,128.09 81.867,124.905 82.74,121.71 C83.318,119.964 84.768,118.514 86.797,117.358 C89.12,116.202 91.443,116.202 93.177,117.063 C96.078,118.219 96.951,121.12 96.951,121.12 C101.008,132.725 106.232,142.584 107.978,142.879 C108.272,142.879 108.85,142.584 108.85,142.006 C109.723,140.261 108.85,137.36 108.556,136.204 L100.147,100.813 C100.147,100.518 96.373,89.208 103.626,86.601 C105.654,85.729 107.683,86.023 109.428,86.896 C112.329,88.347 113.202,91.543 113.485,91.543 L124.512,128.962 C125.09,130.707 125.963,134.764 127.708,134.47 C128.286,134.47 128.581,134.175 128.581,133.892 C129.453,132.736 128.875,129.835 128.875,129.835 L125.396,86.021 C124.818,82.247 125.396,75.289 132.354,73.838 C134.961,73.26 137.284,73.544 139.312,74.994 C142.214,77.023 142.792,80.502 142.792,80.502 C142.792,80.502 146.271,119.372 147.143,126.921 C147.438,131.272 148.016,132.723 148.594,132.723 C150.917,132.723 151.495,128.371 151.495,128.371 L156.142,92.98 C156.142,92.107 156.436,87.472 159.338,84.854 C160.788,83.404 162.533,83.109 164.845,83.109 C167.452,83.404 169.197,84.265 170.647,86.01 C172.393,88.333 171.803,91.235 171.803,91.813 L167.168,142.299 C167.168,144.327 167.463,150.13 170.364,150.708 C174.138,151.286 176.167,148.384 176.167,148.101 L188.066,130.989 C190.095,128.666 195.024,124.892 199.965,128.666 C204.589,131.861 203.433,138.242 201.983,140.848 z" fill="#F534CC" id="Layer_1"/>
  </g>
</svg>
